<svg xmlns="http://www.w3.org/2000/svg" viewBox="0 0 256 256" width="256" height="256">
  <!-- WhatsApp-style green speech bubble with a phone handset -->
  <defs>
    <linearGradient id="wa" x1="0" y1="0" x2="0" y2="1">
      <stop offset="0" stop-color="#25D366"/>
      <stop offset="1" stop-color="#128C7E"/>
    </linearGradient>
  </defs>
  <path fill="url(#wa)" d="M128 16C66.1 16 16 66.1 16 128c0 21.6 6.1 41.7 16.7 58.8L17 240l54.6-15.4C88.2 234.2 107.4 240 128 240c61.9 0 112-50.1 112-112S189.9 16 128 16z"/>
  <path fill="#fff" d="M173.4 152.7c-2.5-1.3-14.6-7.2-16.9-8s-3.9-1.3-5.6 1.3-6.4 8-7.9 9.7-2.9 1.9-5.4.6-10.5-3.9-20-12.3c-7.4-6.6-12.4-14.8-13.9-17.3s-.1-3.9 1.1-5.1c1.1-1.1 2.5-2.9 3.7-4.3s1.7-2.5 2.5-4.1.4-3.1-.2-4.3-5.6-13.5-7.7-18.5c-2-4.8-4.1-4.2-5.6-4.2-1.4-.1-3.1-.1-4.7-.1s-4.3.6-6.6 3.1-8.6 8.4-8.6 20.5 8.8 23.8 10 25.4 17.3 26.4 41.9 37c5.9 2.5 10.4 4 14 5.1 5.9 1.9 11.2 1.6 15.5 1 4.7-.7 14.6-6 16.6-11.7s2-10.7 1.4-11.7-2.3-1.6-4.8-2.8z"/>
</svg>
